<svg id="图层_1" data-name="图层 1" xmlns="http://www.w3.org/2000/svg" viewBox="0 0 579.87 138.63"><defs><style>.cls-1{fill:#006d79;}.cls-2{fill:#f8b616;}</style></defs><polygon class="cls-1" points="64.02 37.78 27.99 37.78 33.74 10.7 69.78 10.7 64.02 37.78"/><polygon class="cls-2" points="104.95 29.42 80.04 29.42 84.01 10.7 108.92 10.7 104.95 29.42"/><polygon class="cls-2" points="84.02 10.7 69.78 10.7 72.05 0 86.29 0 84.02 10.7"/><path class="cls-1" d="M104.66,416l-16.4,76q-1.8,8.82-7.52,13.32t-14.55,4.5H23.86q-9.16,0-13.33-4.25T8.33,492l4.45-20.6,33.63-8.17-5.06,23.7c-.22,1.2-.36,2.13-.41,2.78a1.52,1.52,0,0,0,.57,1.47,4.55,4.55,0,0,0,2.21.66c1,.1,2.47.16,4.33.16s3.13,0,4.17-.08a5.41,5.41,0,0,0,2.37-.57,3,3,0,0,0,1.22-1.56,29.73,29.73,0,0,0,.9-2.86l15-70.94Z" transform="translate(-7.7 -378.21)"/><path class="cls-1" d="M186.53,441.49l-11.28,52.8q-1.8,8.82-5.88,12.18t-12.75,3.35h-44a31,31,0,0,1-7.36-.74,8.4,8.4,0,0,1-4.49-2.53,8,8,0,0,1-1.8-4.74,26.92,26.92,0,0,1,.73-7.52L111,441.49q1.8-9,6.13-12.26T130.47,426h42.82q9,0,12,3.27T186.53,441.49Zm-31.38,6.7c.54-2.39.62-3.87.24-4.41s-1.82-.82-4.33-.82H145.5c-2.39,0-3.95.28-4.65.82s-1.29,2-1.72,4.41l-8.34,39.23c-.54,2.4-.6,3.87-.16,4.42s1.85.81,4.25.81h5.56a21.57,21.57,0,0,0,2.94-.16,3.46,3.46,0,0,0,1.72-.65,4,4,0,0,0,1-1.56,16.92,16.92,0,0,0,.73-2.86Z" transform="translate(-7.7 -378.21)"/><path class="cls-1" d="M269.52,450.69l-11.68,55-30.57,11.11,1.47-7H202.26q-9.64,0-13.4-4.25t-1.64-14.06l9.65-45.44L198,426h31.87l-13.24,62.28a3.34,3.34,0,0,0,.66,2.94,3.27,3.27,0,0,0,2.61,1.15h11.94l8.83-41.64" transform="translate(-7.7 -378.21)"/><path class="cls-2" d="M290.89,425.63l4.05-19.12a34.49,34.49,0,0,1,2.45-7.44,12.9,12.9,0,0,1,3.76-4.74,14.5,14.5,0,0,1,5.56-2.45,35.33,35.33,0,0,1,7.68-.74H349.7l-8.5,17.17H329.27a21.37,21.37,0,0,0-2.94.16,3.38,3.38,0,0,0-1.8.74,4,4,0,0,0-1.06,1.63,15.9,15.9,0,0,0-.74,2.86l-2.62,11.93h18.31l-5.86,19.65H316L302.3,509.82H273l13.64-64.54Z" transform="translate(-7.7 -378.21)"/><polygon class="cls-2" points="272.2 67.06 234.12 67.06 238.29 47.42 276.37 47.42 272.2 67.06"/><path class="cls-1" d="M414.63,442l-2,9.32H384.88l.66-3.11c.32-1.3.54-2.34.65-3.1a1.62,1.62,0,0,0-.49-1.64,4.28,4.28,0,0,0-2.21-.57c-1-.05-2.59-.08-4.66-.08-1.74,0-3.13,0-4.17.08a6,6,0,0,0-2.45.57A2.92,2.92,0,0,0,370.9,445a26,26,0,0,0-.89,3l-.33,2a4.61,4.61,0,0,0,2.21,5.07,34.91,34.91,0,0,0,7.43,3.68q4.57,1.71,10,3.43a42.8,42.8,0,0,1,9.72,4.41,20.4,20.4,0,0,1,6.78,6.7q2.46,4,1.15,10.22l-2.45,11.77a18.44,18.44,0,0,1-3.19,7.44A16.21,16.21,0,0,1,396,507.2a23.14,23.14,0,0,1-7,2.29,51.48,51.48,0,0,1-8.34.65H346.47q-8.5,0-12.34-3.76t-2.05-12.58l2-9.32h28.27l-.65,3.27a13.44,13.44,0,0,0-.49,3.11,1.92,1.92,0,0,0,.65,1.63,3.94,3.94,0,0,0,2.13.57c1,.06,2.4.08,4.25.08s3.16,0,4.25-.08a5.87,5.87,0,0,0,2.53-.57,2.85,2.85,0,0,0,1.31-1.55,16,16,0,0,0,.73-3l.49-2.29c.44-2-.3-3.53-2.2-4.74a36.51,36.51,0,0,0-7.44-3.35Q363.3,476,358,474.1a38.3,38.3,0,0,1-9.56-4.9,20.05,20.05,0,0,1-6.54-7.77q-2.29-4.74-.82-11.93l1.64-7.52q2-9,8.66-12.67a32.49,32.49,0,0,1,15.86-3.68h30.08a34.61,34.61,0,0,1,8.09.9,15,15,0,0,1,6,2.86,10.05,10.05,0,0,1,3.27,5.07A15.19,15.19,0,0,1,414.63,442Z" transform="translate(-7.7 -378.21)"/><path class="cls-1" d="M501.14,441.49l-11.28,52.8q-1.8,8.82-5.89,12.18t-12.74,3.35h-44a30.93,30.93,0,0,1-7.36-.74,8.47,8.47,0,0,1-4.5-2.53,8.08,8.08,0,0,1-1.79-4.74,26.55,26.55,0,0,1,.73-7.52l11.28-52.8q1.8-9,6.13-12.26T445.07,426H487.9q9,0,12,3.27T501.14,441.49Zm-31.39,6.7c.55-2.39.63-3.87.25-4.41s-1.83-.82-4.33-.82h-5.56c-2.4,0-3.95.28-4.66.82s-1.28,2-1.71,4.41l-8.34,39.23c-.55,2.4-.6,3.87-.16,4.42s1.85.81,4.25.81H455a21.63,21.63,0,0,0,2.95-.16,3.39,3.39,0,0,0,1.71-.65,3.84,3.84,0,0,0,1-1.56,16.8,16.8,0,0,0,.74-2.86Z" transform="translate(-7.7 -378.21)"/><path class="cls-1" d="M587.48,435.44l-15.86,74.38H542.69l13.41-62.93c.21-1.2.18-2-.09-2.29s-1-.5-2.2-.5H542.37a2,2,0,0,0-2.13,2l-13.57,63.75H497.9l13.57-63.75,1-20.11h32l-1,4.91a27.18,27.18,0,0,1,6-3.19,47,47,0,0,1,6.37-2,43,43,0,0,1,6.13-1c2-.17,3.76-.25,5.39-.25a33.48,33.48,0,0,1,6.46.74,34.19,34.19,0,0,1,6.87,2.12,17,17,0,0,1,5.23,3.43A5,5,0,0,1,587.48,435.44Z" transform="translate(-7.7 -378.21)"/></svg>